<?xml version="1.0" encoding="UTF-8"?>
<svg width="347px" height="112px" viewBox="0 0 347 112" version="1.1" xmlns="http://www.w3.org/2000/svg" xmlns:xlink="http://www.w3.org/1999/xlink">
    <title>web/draft/add a photo copy 3</title>
    <g id="UI-Toolkit" stroke="none" stroke-width="1" fill="none" fill-rule="evenodd">
        <g id="Create-/-draft" transform="translate(-436.000000, -374.000000)">
            <g id="web/draft/change-photo-hover" transform="translate(436.000000, 374.000000)">
                <g id="web/draft/add-a-photo">
                    <rect id="Rectangle" fill-opacity="0.5" fill="#000000" x="0" y="0" width="347" height="112"></rect>
                    <path d="M97.9065421,70.8753505 C104.788617,70.8753505 110.36764,65.2963268 110.36764,58.4142523 C110.36764,51.5321779 104.788617,45.9531542 97.9065421,45.9531542 C91.0244676,45.9531542 85.4454439,51.5321779 85.4454439,58.4142523 C85.4454439,65.2963268 91.0244676,70.8753505 97.9065421,70.8753505 Z M122.828621,38.4766355 L114.924883,38.4766355 C113.925818,38.4766355 112.987617,38.0872664 112.280607,37.3814252 L107.724533,32.8253505 C106.54778,31.6485981 104.982827,31 103.318107,31 L92.4949766,31 C90.830257,31 89.2653037,31.6485981 88.0885514,32.8253505 L83.5324766,37.3814252 C82.8254673,38.0872664 81.8872664,38.4766355 80.8882009,38.4766355 L72.9844626,38.4766355 C70.2353972,38.4766355 68,40.7120327 68,43.4609813 L68,75.8596963 C68,78.6086449 70.2353972,80.8441589 72.9844626,80.8441589 L122.828738,80.8441589 C125.577687,80.8441589 127.813201,78.6087617 127.813201,75.8596963 L127.813201,43.4609813 C127.813201,40.7120327 125.577687,38.4766355 122.828621,38.4766355 Z M97.9065421,73.3675234 C89.6608645,73.3675234 82.953271,66.6599299 82.953271,58.4142523 C82.953271,50.1685748 89.6608645,43.4609813 97.9065421,43.4609813 C106.15222,43.4609813 112.859813,50.1685748 112.859813,58.4142523 C112.859813,66.6599299 106.15222,73.3675234 97.9065421,73.3675234 Z M117.844276,50.9376168 C116.470444,50.9376168 115.352103,49.8192757 115.352103,48.4454439 C115.352103,47.0716121 116.470444,45.953271 117.844276,45.953271 C119.218107,45.953271 120.336449,47.0716121 120.336449,48.4454439 C120.336449,49.8192757 119.218107,50.9376168 117.844276,50.9376168 Z" id="Shape" fill="#A5A5A5"></path>
                    <text id="Change-photo" font-family="ProximaNova-Semibold, Proxima Nova" font-size="18" font-weight="500" line-spacing="24" letter-spacing="0.670000017" fill="#B1B1B1">
                        <tspan x="156.008201" y="61.9220794">Change photo</tspan>
                    </text>
                </g>
            </g>
        </g>
    </g>
</svg>