<?xml version="1.0" encoding="UTF-8"?>
<svg width="347px" height="112px" viewBox="0 0 347 112" version="1.1" xmlns="http://www.w3.org/2000/svg" xmlns:xlink="http://www.w3.org/1999/xlink">
    <title>web/draft/add a photo copy 4</title>
    <g id="UI-Toolkit" stroke="none" stroke-width="1" fill="none" fill-rule="evenodd">
        <g id="Create-/-draft" transform="translate(-851.000000, -168.000000)">
            <g id="web/draft/add-a-photo-focus" transform="translate(851.000000, 168.000000)">
                <g id="add-a-photo">
                    <rect id="Rectangle" fill="#4A4A4A" x="0" y="0" width="347" height="112"></rect>
                    <g id="Group-2" transform="translate(72.997291, 31.000000)" fill="#A5A5A5">
                        <path d="M29.9038329,39.953271 C36.7859074,39.953271 42.3649311,34.3742474 42.3649311,27.4921729 C42.3649311,20.6100984 36.7859074,15.0310748 29.9038329,15.0310748 C23.0217585,15.0310748 17.4427348,20.6100984 17.4427348,27.4921729 C17.4427348,34.3742474 23.0217585,39.953271 29.9038329,39.953271 Z M54.8259124,7.55455607 L46.9221741,7.55455607 C45.9231087,7.55455607 44.9849077,7.16518692 44.2778984,6.45934579 L39.7218236,1.90327103 C38.5450713,0.726518692 36.980118,0.0779205607 35.3153984,0.0779205607 L24.4922675,0.0779205607 C22.8275479,0.0779205607 21.2625946,0.726518692 20.0858423,1.90327103 L15.5297675,6.45934579 C14.8227582,7.16518692 13.8845572,7.55455607 12.8854918,7.55455607 L4.98175351,7.55455607 C2.23268809,7.55455607 -0.00270910699,9.78995327 -0.00270910699,12.5389019 L-0.00270910699,44.9376168 C-0.00270910699,47.6865654 2.23268809,49.9220794 4.98175351,49.9220794 L54.8260292,49.9220794 C57.5749778,49.9220794 59.8104918,47.6866822 59.8104918,44.9376168 L59.8104918,12.5389019 C59.8104918,9.78995327 57.5749778,7.55455607 54.8259124,7.55455607 Z M29.9038329,42.4454439 C21.6581554,42.4454439 14.9505619,35.7378505 14.9505619,27.4921729 C14.9505619,19.2464953 21.6581554,12.5389019 29.9038329,12.5389019 C38.1495105,12.5389019 44.857104,19.2464953 44.857104,27.4921729 C44.857104,35.7378505 38.1495105,42.4454439 29.9038329,42.4454439 Z M49.8415666,20.0155374 C48.4677348,20.0155374 47.3493937,18.8971963 47.3493937,17.5233645 C47.3493937,16.1495327 48.4677348,15.0311916 49.8415666,15.0311916 C51.2153984,15.0311916 52.3337395,16.1495327 52.3337395,17.5233645 C52.3337395,18.8971963 51.2153984,20.0155374 49.8415666,20.0155374 Z" id="Shape"></path>
                        <text id="Select-photo" font-family="ProximaNova-Semibold, Proxima Nova" font-size="18" font-weight="500" line-spacing="24" letter-spacing="0.670000017">
                            <tspan x="85.5484917" y="32">Select photo</tspan>
                        </text>
                    </g>
                </g>
            </g>
        </g>
    </g>
</svg>