<svg xmlns="http://www.w3.org/2000/svg" xmlns:xlink="http://www.w3.org/1999/xlink" version="1.1" id="Layer_1" x="0px" y="0px" viewBox="0 0 200 76" style="enable-background:new 0 0 200 76;" xml:space="preserve">
	<style type="text/css">
		.st0{filter:url(#Adobe_OpacityMaskFilter);}
		.st1{fill-rule:evenodd;clip-rule:evenodd;fill:#FFFFFF;}
		.st2{mask:url(#mask-2_1_);fill-rule:evenodd;clip-rule:evenodd;fill:#38161D;}
		.st3{fill-rule:evenodd;clip-rule:evenodd;fill:#38161D;}
		.st4{fill-rule:evenodd;clip-rule:evenodd;fill:#E2C652;}
		.st5{fill-rule:evenodd;clip-rule:evenodd;fill:#894525;}
		.st6{fill-rule:evenodd;clip-rule:evenodd;fill:#EED991;}
		.st7{fill-rule:evenodd;clip-rule:evenodd;fill:#F3E4B2;}
	</style>
	<g id="Symbols">
		<g id="web_x2F_login_x2F_inactive" transform="translate(-143.000000, -43.000000)">
			<g id="LOGO">
				<g transform="translate(143.000000, 43.000000)">
					<g id="Group">
						<g id="burnt-butter-wording" transform="translate(0.000000, 59.638747)">
							<g id="Group-3">
								<g id="Clip-2">
								</g>
								<defs>
									<filter id="Adobe_OpacityMaskFilter" filterUnits="userSpaceOnUse" x="0" y="0.4" width="13.3" height="13.9">
										<feColorMatrix type="matrix" values="1 0 0 0 0  0 1 0 0 0  0 0 1 0 0  0 0 0 1 0" />
									</filter>
								</defs>
								<mask maskUnits="userSpaceOnUse" x="0" y="0.4" width="13.3" height="13.9" id="mask-2_1_">
									<g class="st0">
										<polygon id="path-1_1_" class="st1" points="0.2,0.4 13.3,0.4 13.3,14.3 0.2,14.3          " />
									</g>
								</mask>
								<path id="Fill-1" class="st2" d="M4.2,11h3.3c1.2,0,1.6-0.5,1.6-1.2c0-0.7-0.5-1.2-1.7-1.2H4.2V11z M4.2,5.7h3.2         c1,0,1.3-0.4,1.3-1c0-0.6-0.5-1-1.5-1h-3V5.7z M0.3,14.3C0.1,14.3,0,14.2,0,14V0.7c0-0.1,0.1-0.3,0.3-0.3h7.6         c3.2,0,4.9,1.7,4.9,3.9c0,1.1-0.4,1.9-1.1,2.6v0c1,0.7,1.6,1.8,1.6,3.1c0,2.7-2,4.3-5.4,4.3H0.3L0.3,14.3z" />
							</g>
							<path id="Fill-4" class="st3" d="M27.3,0.9c0-0.1,0.1-0.3,0.3-0.3h3.6c0.1,0,0.3,0.1,0.3,0.3v6.8c0,4.4-2.7,6.9-7.3,6.9        c-4.5,0-7.3-2.5-7.3-6.9V0.9c0-0.1,0.1-0.3,0.3-0.3h3.6c0.1,0,0.3,0.1,0.3,0.3v6.7c0,2.4,1.2,3.5,3.1,3.5c2,0,3.1-1.2,3.1-3.5        V0.9" />
							<path id="Fill-5" class="st3" d="M40.3,4.1v3.3h2.7c1.3,0,2.1-0.7,2.1-1.6c0-1-0.7-1.6-2.1-1.6H40.3z M50.9,11.3        c0.1,0,0.2,0,0.2,0.1c0.1,0.1,0.1,0.1,0.1,0.2v2.6c0,0.1,0,0.2-0.1,0.2c-0.1,0.1-0.1,0.1-0.2,0.1c-5.7-0.1-7.6-2.8-8-3.9        c-0.7,0-2.6,0-2.6,0v3.5c0,0.1-0.1,0.3-0.3,0.3h-3.6c-0.1,0-0.3-0.1-0.3-0.3V0.9c0-0.1,0.1-0.3,0.3-0.3h6.9        c3.4,0,5.8,2,5.8,5.1c0,2-1.1,3.4-2.7,4.2C47.7,10.9,48.9,11.3,50.9,11.3z" />
							<path id="Fill-6" class="st3" d="M60.9,8.6C60.2,8,59.5,7,59.5,7h-0.1v7.2c0,0.1-0.1,0.3-0.3,0.3h-3.5c-0.1,0-0.3-0.1-0.3-0.3        V0.9c0-0.1,0.1-0.3,0.3-0.3h3.1l5.8,6.1c0.7,0.7,1.2,1.4,1.2,1.4h0.1V0.9c0-0.1,0.1-0.3,0.3-0.3h3.5c0.1,0,0.3,0.1,0.3,0.3        v13.4c0,0.1-0.1,0.3-0.3,0.3h-3.1L60.9,8.6" />
							<path id="Fill-7" class="st3" d="M73.7,4.1c-0.1,0-0.3-0.2-0.3-0.3V0.9c0-0.1,0.2-0.3,0.3-0.3h13.3c0.1,0,0.3,0.2,0.3,0.3v2.9        c0,0.1-0.2,0.3-0.3,0.3h-4.6v10.2c0,0.1-0.1,0.3-0.3,0.3h-3.6c-0.1,0-0.3-0.1-0.3-0.3V4.1H73.7" />
							<path id="Fill-8" class="st3" d="M188.8,4.1v3.3h2.7c1.3,0,2-0.7,2-1.6c0-1-0.7-1.6-2-1.6H188.8z M199.5,11.3        c0.1,0,0.2,0,0.2,0.1c0.1,0.1,0.1,0.1,0.1,0.2v2.6c0,0.1,0,0.2-0.1,0.2c-0.1,0.1-0.1,0.1-0.2,0.1c-5.7-0.1-7.6-2.8-8-3.9        c-0.7,0-2.6,0-2.6,0v3.5c0,0.1-0.1,0.3-0.3,0.3h-3.6c-0.1,0-0.3-0.1-0.3-0.3V0.9c0-0.1,0.1-0.3,0.3-0.3h6.9        c3.4,0,5.8,2,5.8,5.1c0,2-1.1,3.4-2.7,4.2C196.2,10.9,197.4,11.3,199.5,11.3z" />
							<path id="Fill-9" class="st3" d="M103.2,11.2h3.3c1.2,0,1.7-0.5,1.7-1.2c0-0.7-0.5-1.2-1.7-1.2h-3.3V11.2z M103.2,5.9h3.2        c1,0,1.3-0.4,1.3-1c0-0.6-0.5-1-1.5-1h-3.1V5.9z M99.3,14.5c-0.1,0-0.3-0.1-0.3-0.3V0.9c0-0.1,0.1-0.3,0.3-0.3h7.7        c3.2,0,4.9,1.7,4.9,3.9c0,1.1-0.4,1.9-1.1,2.6v0c1,0.7,1.6,1.8,1.6,3.2c0,2.7-2,4.3-5.4,4.3H99.3L99.3,14.5z" />
							<path id="Fill-10" class="st3" d="M126.3,0.9c0-0.1,0.1-0.3,0.3-0.3h3.6c0.1,0,0.3,0.1,0.3,0.3v6.8c0,4.4-2.7,6.9-7.3,6.9        c-4.5,0-7.3-2.5-7.3-6.9V0.9c0-0.1,0.1-0.3,0.3-0.3h3.6c0.1,0,0.3,0.1,0.3,0.3v6.7c0,2.4,1.2,3.5,3.1,3.5c2,0,3.1-1.2,3.1-3.5        V0.9" />
							<path id="Fill-11" class="st3" d="M134.3,4.1c-0.1,0-0.3-0.2-0.3-0.3V0.9c0-0.1,0.2-0.3,0.3-0.3h13.3c0.1,0,0.3,0.2,0.3,0.3        v2.9c0,0.1-0.2,0.3-0.3,0.3h-4.6v10.2c0,0.1-0.1,0.3-0.3,0.3h-3.6c-0.1,0-0.3-0.1-0.3-0.3V4.1H134.3" />
							<path id="Fill-12" class="st3" d="M151.2,4.1c-0.1,0-0.3-0.2-0.3-0.3V0.9c0-0.1,0.2-0.3,0.3-0.3h13.3c0.1,0,0.3,0.2,0.3,0.3        v2.9c0,0.1-0.2,0.3-0.3,0.3h-4.6v10.2c0,0.1-0.1,0.3-0.3,0.3h-3.6c-0.1,0-0.3-0.1-0.3-0.3V4.1H151.2" />
							<path id="Fill-13" class="st3" d="M172.6,9.1V11h7.7c0.1,0,0.3,0.2,0.3,0.3v2.9c0,0.1-0.2,0.3-0.3,0.3h-11.6        c-0.1,0-0.3-0.1-0.3-0.3V0.9c0-0.1,0.1-0.3,0.3-0.3h11.5c0.1,0,0.3,0.2,0.3,0.3v2.9c0,0.1-0.2,0.3-0.3,0.3h-7.6v1.7h6.9        c0.1,0,0.3,0.2,0.3,0.3v2.7c0,0.1-0.2,0.3-0.3,0.3H172.6" />
						</g>
						<g id="burnt-butter-logo" transform="translate(62.619898, 0.000000)">
							<path id="Fill-14" class="st4" d="M34.9,27.1C34.9,27.1,34.9,27.1,34.9,27.1L13.5,1.5c-0.3,0.3-0.4,0.6-0.4,1v16.9l21.4,25.7        l0-16.9C34.5,27.8,34.6,27.4,34.9,27.1" />
							<path id="Fill-15" class="st4" d="M33.2,45.1c0,0,0.2,0,0.7,0v0H33.2" />
							<path id="Fill-16" class="st5" d="M12.1,18.9c0,0-14-0.7-11.8,5.1c1.3,3.5,9.6,3.2,11.1,5.1c3,3.6-14,0.7-8.5,8.8        c7,10.2,30.7,6.6,30.7,6.6L12.1,18.9" />
							<g id="Group-20" transform="translate(13.106490, 0.000000)">
								<path id="Fill-17" class="st6" d="M20.9,44.4h22.5V27.5c0-0.8-0.6-1.5-1.4-1.5H22.3c-0.4,0-0.8,0.2-1,0.4         c-0.3,0.3-0.4,0.7-0.4,1L20.9,44.4" />
								<path id="Fill-19" class="st7" d="M42.9,26.2L23,1.2c-0.4-0.6-1-0.9-1.7-0.9H1.4c-0.4,0-0.8,0.2-1.1,0.5l21,25.7c0,0,0,0,0,0         c0.3-0.3,0.6-0.4,1-0.4h19.6c0.8,0,1.4,0.7,1.4,1.5v0C43.4,27,43.2,26.6,42.9,26.2" />
							</g>
							<path id="Fill-21" class="st5" d="M73.9,35.6c-2.6-6.2-12.8-3.9-15.2-6.6c-2.7-3.1,7.8-2.3,5.1-6.4c-2.1-3.2-7.9-3.9-14.3-3.8        l6.8,8.1c0.3,0.4,0.5,0.8,0.5,1.3v16.5C66.9,46.3,76.3,41.3,73.9,35.6" />
						</g>
					</g>
				</g>
			</g>
		</g>
	</g>
</svg>
